<?xml version="1.0" encoding="UTF-8"?>
<svg width="20px" height="16px" viewBox="0 0 20 16" version="1.1" xmlns="http://www.w3.org/2000/svg" xmlns:xlink="http://www.w3.org/1999/xlink">
    <!-- Generator: Sketch 42 (36781) - http://www.bohemiancoding.com/sketch -->
    <title>exit</title>
    <desc>Created with Sketch.</desc>
    <defs>
        <path d="M3.053511,9 L4.755922,10.634315 C5.081359,10.946734 5.081359,11.453266 4.755922,11.765685 C4.430485,12.078105 3.902848,12.078105 3.577411,11.765685 L0.2440777,8.56569 C-0.08135923,8.25327 -0.08135923,7.74673 0.2440777,7.43431 L3.577411,4.23431 C3.902848,3.9219 4.430485,3.9219 4.755922,4.23431 C5.081359,4.54673 5.081359,5.05327 4.755922,5.36569 L3.053511,7 L14,7 C14.65078,7 15,7.44772 15,8 C15,8.55228 14.65078,9 14,9 L3.053511,9 Z M9.997545,14 C9.997545,14 18,13.999155 18,13.993155 C18,13.993155 17.99942,2 18.00246,2 L10,2 L10,4 C10,4.55228 9.552285,5 9,5 C8.447715,5 8,4.55228 8,4 L8,1.9936 C8,0.89162 8.89497,0 9.997545,0 L18.00246,0 C19.10791,0 20,0.89989 20,2.00685 L20,13.993155 C20,15.099497 19.108,16 18.00246,16 L9.997545,16 C8.897616,16 8,15.098033 8,14.006402 L8,12 C8,11.447715 8.447715,11 9,11 C9.552285,11 10,11.447715 10,12 C10,12 10.00047,14.000964 9.997545,14 Z" id="path-1"></path>
    </defs>
    <g id="Symbols" stroke="none" stroke-width="1" fill="none" fill-rule="evenodd">
        <g id="шапка2" transform="translate(-1138.000000, -50.000000)">
            <g id="exit" transform="translate(1148.000000, 58.000000) scale(-1, 1) translate(-1148.000000, -58.000000) translate(1138.000000, 50.000000)">
                <mask id="mask-2" fill="white">
                    <use xlink:href="#path-1"></use>
                </mask>
                <g id="Clip-2"></g>
                <polygon id="Fill-1" fill="#000000" mask="url(#mask-2)" points="-5 21 25 21 25 -5 -5 -5"></polygon>
            </g>
        </g>
    </g>
</svg>